<svg id="visual" viewBox="0 0 900 600" width="900" height="600" xmlns="http://www.w3.org/2000/svg" xmlns:xlink="http://www.w3.org/1999/xlink" version="1.1"><rect x="0" y="0" width="900" height="600" fill="#3B3054"></rect><defs><linearGradient id="grad1_0" x1="33.3%" y1="0%" x2="100%" y2="100%"><stop offset="20%" stop-color="#3b3054" stop-opacity="1"></stop><stop offset="80%" stop-color="#3b3054" stop-opacity="1"></stop></linearGradient></defs><defs><linearGradient id="grad2_0" x1="0%" y1="0%" x2="66.7%" y2="100%"><stop offset="20%" stop-color="#3b3054" stop-opacity="1"></stop><stop offset="80%" stop-color="#3b3054" stop-opacity="1"></stop></linearGradient></defs><g transform="translate(900, 0)"><path d="M0 378.6C-39.5 373.4 -79 368.2 -114.3 351.9C-149.7 335.5 -180.8 308 -202.2 278.3C-223.6 248.6 -235.1 216.8 -263.7 191.6C-292.4 166.4 -338.1 147.8 -360.1 117C-382 86.2 -380.3 43.1 -378.6 0L0 0Z" fill="#4b3f6b"></path></g><g transform="translate(0, 600)"><path d="M0 -378.6C35.7 -366.7 71.4 -354.8 112.5 -346.2C153.6 -337.6 200 -332.4 219.8 -302.6C239.6 -272.8 232.7 -218.4 256.5 -186.3C280.2 -154.2 334.6 -144.3 360.1 -117C385.5 -89.6 382 -44.8 378.6 0L0 0Z" fill="#4b3f6b"></path></g></svg>